<svg width="12" height="12" viewBox="0 0 12 12" fill="none" xmlns="http://www.w3.org/2000/svg">
<path fill-rule="evenodd" clip-rule="evenodd" d="M8.78078 10.5003C8.70178 10.5003 8.62228 10.4818 8.54928 10.4438L5.99978 9.11183L3.45078 10.4438C3.28178 10.5313 3.07778 10.5163 2.92478 10.4043C2.77078 10.2923 2.69428 10.1028 2.72678 9.91533L3.21228 7.10133L1.15228 5.10883C1.01528 4.97633 0.965781 4.77733 1.02428 4.59533C1.08278 4.41433 1.23928 4.28183 1.42828 4.25483L4.27828 3.84083L5.55228 1.27783C5.72128 0.937827 6.27878 0.937827 6.44778 1.27783L7.72178 3.84083L10.5718 4.25483C10.7608 4.28183 10.9173 4.41433 10.9758 4.59533C11.0343 4.77733 10.9848 4.97633 10.8478 5.10883L8.78778 7.10133L9.27328 9.91533C9.30578 10.1028 9.22878 10.2923 9.07528 10.4043C8.98828 10.4683 8.88478 10.5003 8.78078 10.5003Z" fill="white"/>
</svg>
