<svg width="24" height="24" viewBox="0 0 24 24" fill="none" xmlns="http://www.w3.org/2000/svg">
<path fill-rule="evenodd" clip-rule="evenodd" d="M17.5616 21.0007C17.4036 21.0007 17.2446 20.9637 17.0986 20.8877L11.9996 18.2237L6.9016 20.8877C6.5636 21.0627 6.1556 21.0327 5.8496 20.8087C5.5416 20.5847 5.3886 20.2057 5.4536 19.8307L6.4246 14.2027L2.3046 10.2177C2.0306 9.95265 1.9316 9.55465 2.0486 9.19065C2.1656 8.82865 2.4786 8.56365 2.8566 8.50965L8.5566 7.68165L11.1046 2.55565C11.4426 1.87565 12.5576 1.87565 12.8956 2.55565L15.4436 7.68165L21.1436 8.50965C21.5216 8.56365 21.8346 8.82865 21.9516 9.19065C22.0686 9.55465 21.9696 9.95265 21.6956 10.2177L17.5756 14.2027L18.5466 19.8307C18.6116 20.2057 18.4576 20.5847 18.1506 20.8087C17.9766 20.9367 17.7696 21.0007 17.5616 21.0007Z" fill="white"/>
</svg>
