<svg width="20" height="20" viewBox="0 0 20 20" fill="none" xmlns="http://www.w3.org/2000/svg">
<path fill-rule="evenodd" clip-rule="evenodd" d="M14.6347 17.5005C14.503 17.5005 14.3705 17.4697 14.2488 17.4064L9.99966 15.1864L5.75132 17.4064C5.46966 17.5522 5.12966 17.5272 4.87466 17.3405C4.61799 17.1539 4.49049 16.838 4.54466 16.5255L5.35382 11.8355L1.92049 8.51471C1.69216 8.29388 1.60966 7.96221 1.70716 7.65888C1.80466 7.35721 2.06549 7.13638 2.38049 7.09138L7.13049 6.40138L9.25382 2.12971C9.53549 1.56305 10.4647 1.56305 10.7463 2.12971L12.8697 6.40138L17.6197 7.09138C17.9347 7.13638 18.1955 7.35721 18.293 7.65888C18.3905 7.96221 18.308 8.29388 18.0797 8.51471L14.6463 11.8355L15.4555 16.5255C15.5097 16.838 15.3813 17.1539 15.1255 17.3405C14.9805 17.4472 14.808 17.5005 14.6347 17.5005Z" fill="white"/>
</svg>
