<svg width="28" height="28" viewBox="0 0 28 28" fill="none" xmlns="http://www.w3.org/2000/svg">
<path fill-rule="evenodd" clip-rule="evenodd" d="M20.4885 24.5008C20.3042 24.5008 20.1187 24.4576 19.9484 24.3689L13.9995 21.2609L8.05187 24.3689C7.65754 24.5731 7.18154 24.5381 6.82454 24.2768C6.4652 24.0154 6.2867 23.5733 6.36254 23.1358L7.49537 16.5698L2.6887 11.9206C2.36904 11.6114 2.25354 11.1471 2.39004 10.7224C2.52654 10.3001 2.8917 9.99093 3.3327 9.92793L9.9827 8.96193L12.9554 2.9816C13.3497 2.18826 14.6505 2.18826 15.0449 2.9816L18.0175 8.96193L24.6675 9.92793C25.1085 9.99093 25.4737 10.3001 25.6102 10.7224C25.7467 11.1471 25.6312 11.6114 25.3115 11.9206L20.5049 16.5698L21.6377 23.1358C21.7135 23.5733 21.5339 24.0154 21.1757 24.2768C20.9727 24.4261 20.7312 24.5008 20.4885 24.5008Z" fill="white"/>
</svg>
